<?xml version="1.0" encoding="utf-8"?>
<!-- Generator: Adobe Illustrator 16.0.0, SVG Export Plug-In . SVG Version: 6.00 Build 0)  -->
<!DOCTYPE svg PUBLIC "-//W3C//DTD SVG 1.1//EN" "http://www.w3.org/Graphics/SVG/1.1/DTD/svg11.dtd">
<svg version="1.1" id="Layer_3" xmlns="http://www.w3.org/2000/svg" xmlns:xlink="http://www.w3.org/1999/xlink" x="0px" y="0px"
	 width="176px" height="179.5px" viewBox="0 0 176 179.5" style="enable-background:new 0 0 176 179.5;" xml:space="preserve">
<style type="text/css">
<![CDATA[
	.st0{fill:#EC7404;}
	.st1{fill:#F08A00;}
	.st2{fill:#F49E00;}
	.st3{fill:#C05F0B;}
	.st4{fill:#D26809;}
	.st5{fill:#DB6C08;}
]]>
</style>
<g>
	<polygon class="st4" points="34.8,108.6 0,128.7 0,128.7 88,179.5 88,179.5 122.9,159.4 	"/>
</g>
<polygon class="st0" points="176,128.7 141.1,108.6 141.1,0 176,20.1 "/>
<polygon class="st0" points="0,128.7 34.8,108.6 34.8,0 0,20.1 "/>
<polygon class="st5" points="0,20.1 34.8,108.6 34.8,0 "/>
<polygon class="st5" points="176,20.1 141.1,108.6 141.1,0 "/>
<polygon class="st2" points="141.1,0 88,30.7 34.8,0 0,20.1 0,20.1 88,70.9 88,70.9 176,20.1 176,20.1 "/>
<polygon class="st3" points="46.6,115.3 26.5,126.9 61.9,147.5 88,179.5 122.9,159.4 "/>
<polygon class="st1" points="88,179.5 122.9,159.4 122.9,107.2 88,127.4 "/>
<g>
	<polygon class="st2" points="79.9,82.5 45.1,102.6 88,127.4 88,127.4 122.9,107.2 	"/>
</g>
</svg>
